<?xml version="1.0" encoding="utf-8"?>
<!-- Generator: Adobe Illustrator 24.0.1, SVG Export Plug-In . SVG Version: 6.00 Build 0)  -->
<svg version="1.1" id="Layer_1" xmlns="http://www.w3.org/2000/svg" xmlns:xlink="http://www.w3.org/1999/xlink" x="0px" y="0px"
	 viewBox="0 0 1049.9 125" style="enable-background:new 0 0 1049.9 125;" xml:space="preserve">
<style type="text/css">
	.st0{fill:#0F0F0F;}
</style>
<path class="st0" d="M1030.8,58.3h17.1c-3.3-17.3-17.8-26.8-35.8-26.8c-19.7,0-36.3,9.6-36.3,25.5c0,16.8,12.6,22.8,26.1,25.5
	l13.5,2.7c9.3,1.8,17.2,5.2,17.2,13.5c0,8-8.7,12.7-19.8,12.7c-12.5,0-19.2-6-21.5-16.2h-17.6c2.2,16.8,16,30,38.6,30
	c20.7,0,37.6-10.3,37.6-28.5c0-17.5-14.8-23.3-31.8-26.7l-12.8-2.5c-8.2-1.7-12.5-4.5-12.5-11.2c0-7.3,9.2-10.8,17.7-10.8
	C1020.6,45.4,1028.3,49.1,1030.8,58.3 M904.9,69.8c2.3-17,12.3-24,25.8-24c14.3,0,23.7,10.7,24.2,24H904.9z M954.2,96.6
	c-3.7,8.5-11,13.7-23.5,13.7c-14,0-24.5-10.3-26.2-26.8h68.3c1.8-29.1-14.3-51.8-42-51.8c-25.5,0-44.1,18.5-44.1,46.3
	c0,26,15.6,47.1,44.6,47.1c22.8,0,36.1-13.6,40.3-28.5C971.6,96.6,954.2,96.6,954.2,96.6z M882,33.3h-17.3v89.6H882V33.3z M882,2.2
	h-17.3v19.1H882V2.2z M854.5,2.2h-17.3v120.7h17.3V2.2z M827.2,2.2H810v120.7h17.3V2.2z M799.8,33.3h-17.3v89.6h17.3V33.3z
	 M799.8,2.2h-17.3v19.1h17.3V2.2z M771.8,38.8C766.8,14.3,747.4,0,721.4,0c-34.8,0-56.9,24.8-56.9,62.3c0,37.1,20.1,62.8,54.8,62.8
	c16.3,0,30-5.5,37.5-17l0.8,14.8h14.8V60.6h-49.1v16.1h31.5v2.7c0,23.3-18.8,29.8-34.1,29.8c-21.8,0-36.6-17.2-36.6-47
	c0-30.6,15.8-46.5,36.8-46.5c17.7,0,28.8,8.8,32.8,23H771.8z M549.3,2.2v120.7h19V68.8h58.6v-16h-58.6V18.3h62.3V2.2H549.3z
	 M498.6,2.2h-17.3v120.7h17.3V2.2z M471.3,2.2H454v120.7h17.3V2.2z M381.5,69.8c2.3-17,12.3-24,25.8-24c14.3,0,23.7,10.7,24.2,24
	H381.5z M430.8,96.6c-3.7,8.5-11,13.7-23.5,13.7c-14,0-24.5-10.3-26.1-26.8h68.3c1.8-29.1-14.3-51.8-42-51.8
	c-25.5,0-44.1,18.5-44.1,46.3c0,26,15.6,47.1,44.6,47.1c22.8,0,36.1-13.6,40.3-28.5C448.3,96.6,430.8,96.6,430.8,96.6z M301.6,46.3
	V2.2h-17.3v120.7h17.3V74.7c0-17.8,7.3-28.6,22.3-28.6c16.3,0,18.5,12,18.5,25v51.8h17.3V66.4c0-20.8-8.3-34.8-30-34.8
	C315.8,31.6,306.8,37.5,301.6,46.3 M279.8,63.6c-2.7-17.5-18.3-32-38.8-32c-26.5,0-43.3,20-43.3,46.6c0,27,16.3,46.8,42.1,46.8
	c19.8,0,37.3-13.1,40.8-31.9h-17.5c-2.3,10.7-12,17.2-23,17.2c-12.3,0-24-10-24-32.1c0-21.8,11.5-31.7,24-31.7
	c11.3,0,20.5,7,22.3,17.2L279.8,63.6L279.8,63.6z M166.8,10.3v23h-13.6v13.1h13.6v53.5c0,18.5,4,23,22.1,23h12.6v-13.8h-7.3
	c-8.7,0-10.2-2.3-10.2-11.5V46.4h17.6V33.3h-17.6v-23H166.8z M150,33.3h-17.3v89.6H150V33.3z M150,2.2h-17.3v19.1H150V2.2z
	 M50.8,122.9h19.6l32.1-101.6v101.6h18.6V2.2H90.7l-30.1,98.6L30.5,2.2H0v120.7h18.6V21.3L50.8,122.9z"/>
</svg>
